<svg xmlns="http://www.w3.org/2000/svg" viewBox="0 0 187 187">
  <style>.st0{fill:#fff}.st1{fill:#e6003d}</style>
  <path class="st0" d="M93.6 0C42-.1 0 41.8 0 93.4c0 49.9 40 93 93.4 93.6 51.6.1 93.6-41.8 93.6-93.4C187 39.6 142.8.9 93.6 0z"/>
  <path class="st1" d="M113.7 79.3c-.3-.4-.6-.7-.9-.9-.3-.3-.7-.5-1.1-.7-.4-.2-.9-.3-1.3-.4-.5-.1-1-.1-1.6-.1-.6 0-1.1 0-1.6.1s-1 .2-1.4.4c-.4.2-.9.4-1.3.7-.4.3-.8.6-1.2 1-.7.7-1.3 1.4-1.9 2.3-.5.9-1 1.8-1.4 2.8-.4 1-.7 2.2-1 3.3-.3 1.2-.5 2.4-.8 3.8-.3 1.3-.5 2.6-.7 3.8-.2 1.2-.3 2.3-.3 3.4s0 2 .2 2.9c.2.9.5 1.6.9 2.3.3.4.6.7.9 1 .3.3.7.5 1.1.7.4.2.9.3 1.3.4.5.1 1 .1 1.6.1.6 0 1.1-.1 1.6-.2s1-.3 1.5-.4c.5-.2.9-.4 1.3-.7a10.6 10.6 0 0 0 3-3.3c.5-.9 1-1.9 1.3-2.9l.6-1.8c.1-.5.3-1 .4-1.6.3-1.2.5-2.4.8-3.7l.3-1.8c.1-.7.2-1.3.3-1.9.2-1.2.3-2.3.3-3.3s0-2-.2-2.8c0-1.1-.3-1.8-.7-2.5zM72.2 79.3c-.3-.4-.6-.7-.9-.9-.3-.3-.7-.5-1.1-.7-.4-.2-.9-.3-1.3-.4-.5-.1-1-.1-1.6-.1-.6 0-1.1 0-1.6.1s-1 .2-1.4.4c-.5.2-.9.4-1.3.7l-1.2.9c-.7.7-1.3 1.4-1.9 2.3-.5.9-1 1.8-1.4 2.8-.4 1-.7 2.2-1 3.3-.3 1.2-.6 2.4-.8 3.8-.3 1.3-.5 2.6-.7 3.8-.2 1.2-.3 2.3-.3 3.4s0 2 .2 2.9c.2.9.5 1.6.9 2.3.3.4.6.7.9 1a4.95 4.95 0 0 0 2.4 1.1c.5.1 1 .1 1.6.1.6 0 1.1-.1 1.6-.2s1-.3 1.5-.4c.5-.2.9-.4 1.3-.7a10.6 10.6 0 0 0 3-3.3c.5-.9 1-1.8 1.3-2.9l.6-1.8c.1-.5.3-1 .4-1.6.3-1.2.5-2.4.8-3.7l.3-1.8.3-2c.2-1.2.3-2.3.3-3.3s0-2-.2-2.8c0-.9-.3-1.6-.7-2.3zM154 78.3c-.3-.3-.7-.5-1.1-.7-.4-.2-.9-.3-1.3-.4-.5-.1-1-.1-1.6-.1-.6 0-1.1 0-1.6.1s-1 .2-1.4.4c-.5.2-.9.4-1.3.7-.4.3-.8.6-1.2 1-.7.7-1.4 1.4-1.9 2.3-.5.9-1 1.8-1.4 2.9-.4 1-.7 2.2-1 3.4-.3 1.2-.6 2.5-.8 3.8-.3 1.3-.5 2.6-.7 3.8-.2 1.2-.3 2.4-.3 3.4 0 1.1 0 2 .2 2.9.2.9.5 1.7.9 2.3.3.4.6.7.9 1 .3.3.7.5 1.1.7.4.2.9.3 1.3.4.5.1 1 .1 1.6.1.6 0 1.1-.1 1.6-.2s1-.3 1.5-.4c.5-.2.9-.4 1.4-.7.4-.3.8-.6 1.2-1 .7-.7 1.3-1.5 1.9-2.3.5-.9 1-1.9 1.3-2.9l.6-1.8c.2-.7.4-1.4.6-2.2.2-1.1.5-2.2.7-3.3.1-.6.2-1.2.3-1.7l.3-2c.2-1.2.3-2.3.3-3.3s0-2-.2-2.8c-.2-.9-.5-1.6-.9-2.3-.4-.5-.7-.9-1-1.1z"/>
  <path class="st1" d="M179.4 56.3c-.5.1-1 .2-1.5.4s-.9.4-1.4.7c-.4.3-.9.6-1.3 1-.8.7-1.4 1.5-2 2.4-.6.9-1 1.9-1.4 3-.4 1.1-.7 2.3-1.1 3.5-.3 1.2-.6 2.6-.8 4-.2.8-1.5 8.8-2.6 15.2l-1.5 8.4s0 .2-.1.5c0 .2-.1.3-.1.5-.1.7-.2 1.3-.3 1.9 0 .3-.1.5-.1.7V99.3a6.79 6.79 0 0 0 .8 3.8c.2.3.5.6.7.8l.9.6c.3.2.7.3 1.1.4h.2l-3 9.5h-.9c-1.1 0-2.1-.2-3.1-.4-.9-.2-1.8-.5-2.6-.9-.1-.1-.3-.2-.4-.3-.5-.3-1.1-.6-1.6-.9-.7-.5-1.4-1.1-1.9-1.8-.8-1.1-1.4-2.3-1.8-3.6-.5.8-1.1 1.7-1.7 2.5-.3.3-.6.7-.9 1l-.2.2c-.2.1-.3.3-.5.4-.2.1-.3.3-.5.4a14.3 14.3 0 0 1-7.2 3.2c-1 .1-2.1.2-3.3.1-1.1 0-2.1-.2-3.1-.4s-1.9-.5-2.8-.9c-.9-.4-1.6-.9-2.3-1.4-.7-.5-1.3-1.1-1.8-1.8-.9-1.2-1.4-2.6-1.8-4.1-.3-1.5-.4-3.1-.4-4.8.1-1.7.3-3.4.5-5.2.3-1.7.6-3.5 1-5.2.3-1.7.7-3.4 1.2-5.1.4-1.7.9-3.4 1.6-5.1.6-1.6 1.4-3.2 2.3-4.6.9-1.4 2-2.7 3.3-3.7.7-.6 1.5-1.1 2.4-1.6.9-.4 1.8-.8 2.8-1.1 1-.3 2-.5 3-.6 1-.1 2.1-.2 3.1-.1 1.1.1 2.1.2 3 .4.9.2 1.8.5 2.6.9s1.5.9 2.2 1.5c.6.5 1.1 1.2 1.6 1.9l.3-1.9c.3-1.6.7-3.3 1.1-5.1.4-1.8.8-3.5 1.3-5.1.5-1.6 1-3.1 1.5-4.5.2-.5.4-.9.6-1.4.1-.1.1-.3.3-.6 0 0 0-.1.1-.1.1-.2.2-.3.3-.5.2-.4.5-.8.7-1.2.5-.7 1-1.4 1.6-2 1.9-2 4.6-4.2 8.5-4.9A92.9 92.9 0 0 0 93.6 0C42-.1 0 41.8 0 93.4c0 15 3.5 29.2 9.8 41.8a9.6 9.6 0 0 0 4.6-4.1l.1-.1.1-.1c.5-.9 1-1.8 1.4-2.8.4-1 .7-2.1 1-3.3 0-.2 7.1-38.8 7.6-41.1h-6.2l3-10.3h4.9l.5-2.7c.1-.4.1-.7.2-1.1l.2-.9c.3-1.6.6-3.5.9-4.8.3-1.1.5-2 .8-2.8a22 22 0 0 1 1.3-3.4c.7-1.6 1.5-3 2.5-4.3 1-1.4 2.1-2.6 3.4-3.7.9-.8 2-1.6 3.1-2.3 1.2-.7 2.4-1.4 3.7-1.9 1.4-.6 2.9-1 4.4-1.3 1.6-.3 3.3-.5 5-.5h.2c1.7 0 3.3.2 4.7.5.6.1 1.1.3 1.6.4h.1l-3.4 10.9-.1-.1c-.1 0-.1-.1-.2-.1-.5-.2-1.1-.4-1.7-.6-.6-.1-1.3-.2-2-.2h-.1c-.7 0-1.5.1-2.2.2-.6.1-1.2.3-1.9.6h-.1-.1c-.5.2-.9.4-1.4.7-.4.3-.9.6-1.3.9-.7.6-1.4 1.3-1.9 2.2-.5.8-1 1.7-1.3 2.8-.3.9-.7 2-.9 3.3 0 .1-.2 1.1-.3 1.9-.1.7-.2 1.3-.3 1.4l-.7 4.9h7.4l-3.1 10.3h-6.1l-5.6 31.1-1.4 7.6c-.3 1.8-.6 3.3-1.1 4.8-.5 2-1.1 3.7-1.8 5.2-.7 1.6-1.6 3.1-2.6 4.4-1 1.4-2.2 2.6-3.5 3.8-1 .9-2 1.7-3.1 2.3-.9.6-1.9 1.1-3 1.6A93.3 93.3 0 0 0 93.4 187c51.6.1 93.6-41.8 93.6-93.4.1-13.2-2.7-25.8-7.6-37.3zM84.1 85.9c-.1 1.6-.4 3.4-.7 5.4-.3 2-.7 3.8-1.1 5.5-.4 1.7-.9 3.2-1.6 4.6-.6 1.4-1.3 2.7-2.2 3.9-.9 1.2-1.9 2.3-3 3.4-.8.7-1.7 1.4-2.8 2.1a23.43 23.43 0 0 1-7.4 3.1c-1.5.3-3 .5-4.7.5-1.7 0-3.2-.1-4.5-.4-1.3-.3-2.6-.7-3.6-1.2-1.1-.5-2-1.1-2.8-1.7-.8-.7-1.5-1.4-2-2.1-.8-1.1-1.4-2.2-1.9-3.4-.4-1.2-.7-2.5-.8-3.9-.1-1.4-.1-3 .1-4.6.2-1.7.4-3.5.8-5.6.4-2 .8-3.9 1.3-5.5.5-1.7 1-3.2 1.7-4.6.6-1.4 1.4-2.7 2.3-3.8.9-1.2 1.9-2.3 3.1-3.3.8-.7 1.7-1.4 2.8-2 1-.6 2.1-1.2 3.4-1.7a21.9 21.9 0 0 1 8.6-1.6c1.6 0 3.1.2 4.4.5 1.3.3 2.5.7 3.5 1.2s1.9 1.1 2.7 1.7c.8.6 1.4 1.3 2 2 .8 1 1.4 2.1 1.9 3.3.4 1.2.7 2.4.8 3.8-.2 1.3-.2 2.8-.3 4.4zm41.5 0c-.1 1.6-.4 3.4-.7 5.4-.3 2-.7 3.8-1.1 5.5-.4 1.7-1 3.2-1.6 4.6-.6 1.4-1.3 2.7-2.2 3.9-.9 1.2-1.9 2.3-3 3.4-.8.7-1.7 1.4-2.8 2.1a23.43 23.43 0 0 1-7.4 3.1c-1.5.3-3 .5-4.7.5-1.7 0-3.2-.1-4.5-.4-1.4-.3-2.6-.7-3.6-1.2-1.1-.5-2-1.1-2.8-1.7-.8-.7-1.5-1.4-2-2.1-.8-1.1-1.4-2.2-1.9-3.4-.4-1.2-.7-2.5-.8-3.9-.1-1.4-.1-3 .1-4.7.2-1.7.4-3.5.8-5.6.4-2 .8-3.9 1.3-5.5.5-1.7 1-3.2 1.7-4.6.7-1.4 1.4-2.7 2.3-3.8.9-1.2 1.9-2.3 3.1-3.3.8-.7 1.7-1.4 2.8-2 1-.6 2.1-1.2 3.4-1.7 1.2-.5 2.5-.9 4-1.1 1.4-.3 2.9-.4 4.6-.4 1.6 0 3.1.2 4.4.5 1.3.3 2.5.7 3.5 1.2s1.9 1.1 2.7 1.7c.8.6 1.4 1.3 2 2 .8 1 1.4 2.1 1.9 3.3.4 1.2.7 2.4.8 3.8-.2 1.3-.2 2.8-.3 4.4z"/>
  <g>
    <path class="st0" d="M59.5 137.9v-6.7c0-1.5-.9-2-1.8-2s-1.8.5-1.8 2v6.7h-2.8v-11h2.7v1c.7-.8 1.7-1.1 2.8-1.1 1.1 0 2 .4 2.6 1 .9.9 1.1 1.9 1.1 3.1v7h-2.8zM69.9 133.2c0 1.4.9 2.5 2.4 2.5 1.2 0 1.8-.3 2.5-1l1.7 1.6a5.27 5.27 0 0 1-4.2 1.7c-2.6 0-5.1-1.2-5.1-5.6 0-3.6 1.9-5.6 4.8-5.6 3.1 0 4.8 2.2 4.8 5.3v1.2h-6.9zm3.9-3c-.3-.7-.9-1.1-1.8-1.1s-1.5.5-1.8 1.1c-.2.4-.2.7-.3 1.2h4.2c0-.5-.1-.8-.3-1.2zM85.3 137.9c-2.2 0-3.2-1.6-3.2-3.2v-5.5h-1.2v-2.1h1.2v-3.3h2.8v3.3h1.9v2.1h-1.9v5.3c0 .6.3 1 1 1h1v2.3h-1.6zM103.6 137.9h-2.3L99 131l-2.3 6.9h-2.3l-3.4-11h3l1.8 6.8 2.2-6.8h2l2.3 6.8 1.8-6.8h2.9l-3.4 11zM119 136.7c-.7.7-1.8 1.4-3.4 1.4-1.6 0-2.7-.6-3.4-1.4-1-1-1.2-2.3-1.2-4.3s.3-3.2 1.2-4.3c.7-.7 1.8-1.4 3.4-1.4 1.6 0 2.7.6 3.4 1.4 1 1 1.2 2.3 1.2 4.3s-.2 3.2-1.2 4.3zm-2.1-7c-.3-.3-.7-.5-1.3-.5-.6 0-1 .2-1.3.5-.6.6-.6 1.5-.6 2.7 0 1.1.1 2.1.6 2.7.3.3.7.5 1.3.5.5 0 1-.2 1.3-.5.6-.6.6-1.5.6-2.7 0-1.2-.1-2.1-.6-2.7zM130.9 129.9c-.4-.4-.8-.7-1.5-.7-.8 0-1.8.6-1.8 2v6.6h-2.7v-11h2.7v1.1c.5-.6 1.6-1.2 2.8-1.2 1.1 0 1.8.3 2.6 1l-2.1 2.2zM143.9 137.9l-2.7-4.6-1.2 1.3v3.3h-2.8v-15.1h2.8v8.5l3.7-4.5h3.3l-3.9 4.4 4.2 6.6h-3.4z"/>
  </g>
</svg>

