<svg xmlns="http://www.w3.org/2000/svg" width="27" height="27" viewBox="0 0 27 27">
  <defs>
    <path id="prefix__a" d="M17.5 13.75c0 2.761-2.239 5-5 5s-5-2.239-5-5h10z"/>
  </defs>
  <g fill="none" fill-rule="evenodd" transform="translate(1 1)">
    <path fill="#FFF" stroke="#1C1C1C" stroke-linecap="round" stroke-linejoin="round" stroke-width="1.5" d="M25 12.5C25 19.404 19.404 25 12.5 25S0 19.404 0 12.5 5.596 0 12.5 0 25 5.596 25 12.5z"/>
    <path fill="#000" d="M9.643 7.679c0 .592-.48 1.071-1.072 1.071-.59 0-1.071-.48-1.071-1.071 0-.592.48-1.072 1.071-1.072.592 0 1.072.48 1.072 1.072zM17.5 7.679c0 .592-.48 1.071-1.071 1.071-.592 0-1.072-.48-1.072-1.071 0-.592.48-1.072 1.072-1.072.592 0 1.071.48 1.071 1.072z"/>
    <path stroke="#1C1C1C" stroke-width="1.5" d="M18.202 13H6.798c-.238 1.882.434 3.614 1.636 4.816 1.04 1.04 2.478 1.684 4.066 1.684 1.588 0 3.025-.644 4.066-1.684 1.202-1.202 1.874-2.934 1.636-4.816z"/>
  </g>
</svg>
