<svg xmlns="http://www.w3.org/2000/svg" viewBox="0 0 24 25">
  <g fill-rule="evenodd" stroke="none" stroke-width="1">
    <g stroke="currentColor" transform="translate(1.000000, 1.000000)">
      <polyline fill="currentColor" points="4.41636624 3.61931328 22.1280206 3.61931328 20.4664838 12.8073053 6.09786144 12.8073053" stroke-linecap="round" stroke-linejoin="round" stroke-width="1.5"/>
      <polyline points="-1.40687462e-14 4.92406116e-14 3.8904624 1.3835448 6.30813744 16.5728138 19.9938974 16.5728138" stroke-linecap="round" stroke-linejoin="round" stroke-width="1.5"/>
      <path d="M17.713409,19.9618538 C18.0895302,19.9618538 18.4301073,20.1144913 18.6766837,20.3610676 C18.92326,20.6076439 19.0758974,20.9482211 19.0758974,21.3243423 C19.0758974,21.7008564 18.9233018,22.041722 18.6766533,22.2884726 C18.4300957,22.5351321 18.0895238,22.6877738 17.713409,22.6877738 C17.3369012,22.6877738 16.9960409,22.535174 16.7493091,22.2884422 C16.5025773,22.0417104 16.3499774,21.70085 16.3499774,21.3243423 C16.3499774,20.9482275 16.5026192,20.6076556 16.7492787,20.361098 C16.9960293,20.1144495 17.3368948,19.9618538 17.713409,19.9618538 Z" stroke-width="1.836"/>
      <path d="M7.82924901,19.9618538 C8.20537019,19.9618538 8.54594733,20.1144913 8.79252367,20.3610676 C9.03910001,20.6076439 9.19173744,20.9482211 9.19173744,21.3243423 C9.19173744,21.7008564 9.03914182,22.041722 8.79249328,22.2884726 C8.54593568,22.5351321 8.20536381,22.6877738 7.82924901,22.6877738 C7.45274124,22.6877738 7.11188089,22.535174 6.8651491,22.2884422 C6.6184173,22.0417104 6.46581744,21.70085 6.46581744,21.3243423 C6.46581744,20.9482275 6.61845915,20.6076556 6.86511871,20.361098 C7.11186926,20.1144495 7.45273485,19.9618538 7.82924901,19.9618538 Z" stroke-width="1.836"/>
    </g>
  </g>
</svg>

